<svg width="43" height="20" viewBox="0 0 43 20" fill="none" xmlns="http://www.w3.org/2000/svg">
<mask id="path-1-inside-1_582_513" fill="white">
<path d="M4.55194 9.16077L5.11785 8.9267C7.24282 8.06245 9.24652 7.2402 10.9326 5.74576C11.2214 5.49368 11.5158 5.2236 11.7988 4.96552L11.845 4.92351C13.1557 3.72916 14.5127 2.49879 16.0949 1.62853C18.139 0.500193 20.7086 -0.0759764 23.3244 0.00804865C26.4772 0.110079 29.0584 0.842297 30.9928 2.1927C32.6616 3.35705 33.8453 5.12157 34.3303 7.17418C34.8269 9.29882 34.2726 11.1414 33.7298 12.9179C33.5219 13.6141 33.3025 14.3283 33.1466 15.0605C33.0773 15.3846 33.1524 15.7207 33.3545 15.9788C33.545 16.2249 33.8222 16.3809 34.1225 16.4049H34.2264L34.3246 16.3809C34.9886 16.1589 36.5535 14.7244 37.4427 13.8122L37.6217 13.6321L37.4196 11.6215L39.533 9.5749L40.1162 10.1811L41.5194 11.6395L42.2412 12.3897L40.1394 14.2803H38.2396L38.0894 14.4303C37.8238 14.7004 37.2868 15.2346 36.6863 15.7687C35.133 17.1552 34.5324 17.3112 34.2206 17.3112C33.6201 17.3112 33.0657 17.0351 32.6904 16.549C32.3209 16.0688 32.1823 15.4566 32.3093 14.8685C32.471 14.1002 32.6962 13.362 32.9098 12.6538C33.4353 10.9193 33.9377 9.27481 33.4931 7.39625C33.0658 5.5657 32.009 3.98723 30.5193 2.95492C28.7177 1.70055 26.2924 1.01634 23.3071 0.920314C20.8356 0.842291 18.422 1.38246 16.5107 2.43877C15.0209 3.26102 13.6985 4.46137 12.4282 5.61372C12.1106 5.9018 11.8046 6.17789 11.5043 6.44197C9.70269 8.03844 7.53731 8.9207 5.44121 9.77295L4.8753 10.001C3.64536 10.5052 2.27687 11.1414 1.65901 12.2517C1.20284 13.0739 1.1624 14.8205 3.01019 16.0268C4.15929 16.777 5.55669 16.753 6.90789 16.735H7.28323L7.39295 16.3569C7.73941 15.1806 8.80766 14.3583 9.98563 14.3583C11.1636 14.3583 12.2261 15.1746 12.5783 16.3449L12.688 16.723H25.0509L25.1664 16.3449C25.5129 15.1746 26.5811 14.3583 27.7591 14.3583C29.2547 14.3583 30.4731 15.6247 30.4731 17.1792C30.4731 18.7336 29.2547 20 27.7591 20C26.5811 20 25.5187 19.1838 25.1664 18.0134L25.0509 17.6353H12.688L12.5783 18.0134C12.2319 19.1838 11.1636 20 9.98563 20C8.80766 20 7.75097 19.2018 7.39873 18.0194L7.28323 17.6353H6.89633C5.47006 17.6653 3.88791 17.6713 2.54825 16.795C1.75716 16.2789 1.11043 15.5047 0.775517 14.6704C0.377087 13.6921 0.429047 12.6718 0.908318 11.8016C1.66476 10.4392 3.18919 9.72494 4.55772 9.16077M27.7591 19.0937C28.7754 19.0937 29.6011 18.2355 29.6011 17.1792C29.6011 16.1228 28.7754 15.2646 27.7591 15.2646C26.7428 15.2646 25.9171 16.1228 25.9171 17.1792C25.9171 18.2355 26.7428 19.0937 27.7591 19.0937ZM9.99141 19.0937C11.0077 19.0937 11.8334 18.2355 11.8334 17.1792C11.8334 16.1228 11.0077 15.2646 9.99141 15.2646C8.97512 15.2646 8.14939 16.1228 8.14939 17.1792C8.14939 18.2355 8.97512 19.0937 9.99141 19.0937Z"/>
</mask>
<path d="M4.55194 9.16077L5.11785 8.9267C7.24282 8.06245 9.24652 7.2402 10.9326 5.74576C11.2214 5.49368 11.5158 5.2236 11.7988 4.96552L11.845 4.92351C13.1557 3.72916 14.5127 2.49879 16.0949 1.62853C18.139 0.500193 20.7086 -0.0759764 23.3244 0.00804865C26.4772 0.110079 29.0584 0.842297 30.9928 2.1927C32.6616 3.35705 33.8453 5.12157 34.3303 7.17418C34.8269 9.29882 34.2726 11.1414 33.7298 12.9179C33.5219 13.6141 33.3025 14.3283 33.1466 15.0605C33.0773 15.3846 33.1524 15.7207 33.3545 15.9788C33.545 16.2249 33.8222 16.3809 34.1225 16.4049H34.2264L34.3246 16.3809C34.9886 16.1589 36.5535 14.7244 37.4427 13.8122L37.6217 13.6321L37.4196 11.6215L39.533 9.5749L40.1162 10.1811L41.5194 11.6395L42.2412 12.3897L40.1394 14.2803H38.2396L38.0894 14.4303C37.8238 14.7004 37.2868 15.2346 36.6863 15.7687C35.133 17.1552 34.5324 17.3112 34.2206 17.3112C33.6201 17.3112 33.0657 17.0351 32.6904 16.549C32.3209 16.0688 32.1823 15.4566 32.3093 14.8685C32.471 14.1002 32.6962 13.362 32.9098 12.6538C33.4353 10.9193 33.9377 9.27481 33.4931 7.39625C33.0658 5.5657 32.009 3.98723 30.5193 2.95492C28.7177 1.70055 26.2924 1.01634 23.3071 0.920314C20.8356 0.842291 18.422 1.38246 16.5107 2.43877C15.0209 3.26102 13.6985 4.46137 12.4282 5.61372C12.1106 5.9018 11.8046 6.17789 11.5043 6.44197C9.70269 8.03844 7.53731 8.9207 5.44121 9.77295L4.8753 10.001C3.64536 10.5052 2.27687 11.1414 1.65901 12.2517C1.20284 13.0739 1.1624 14.8205 3.01019 16.0268C4.15929 16.777 5.55669 16.753 6.90789 16.735H7.28323L7.39295 16.3569C7.73941 15.1806 8.80766 14.3583 9.98563 14.3583C11.1636 14.3583 12.2261 15.1746 12.5783 16.3449L12.688 16.723H25.0509L25.1664 16.3449C25.5129 15.1746 26.5811 14.3583 27.7591 14.3583C29.2547 14.3583 30.4731 15.6247 30.4731 17.1792C30.4731 18.7336 29.2547 20 27.7591 20C26.5811 20 25.5187 19.1838 25.1664 18.0134L25.0509 17.6353H12.688L12.5783 18.0134C12.2319 19.1838 11.1636 20 9.98563 20C8.80766 20 7.75097 19.2018 7.39873 18.0194L7.28323 17.6353H6.89633C5.47006 17.6653 3.88791 17.6713 2.54825 16.795C1.75716 16.2789 1.11043 15.5047 0.775517 14.6704C0.377087 13.6921 0.429047 12.6718 0.908318 11.8016C1.66476 10.4392 3.18919 9.72494 4.55772 9.16077M27.7591 19.0937C28.7754 19.0937 29.6011 18.2355 29.6011 17.1792C29.6011 16.1228 28.7754 15.2646 27.7591 15.2646C26.7428 15.2646 25.9171 16.1228 25.9171 17.1792C25.9171 18.2355 26.7428 19.0937 27.7591 19.0937ZM9.99141 19.0937C11.0077 19.0937 11.8334 18.2355 11.8334 17.1792C11.8334 16.1228 11.0077 15.2646 9.99141 15.2646C8.97512 15.2646 8.14939 16.1228 8.14939 17.1792C8.14939 18.2355 8.97512 19.0937 9.99141 19.0937Z" fill="#B2B0B0"/>
<path d="M5.11785 8.9267L5.0414 8.74189L5.0425 8.74144L5.11785 8.9267ZM10.9326 5.74576L10.8 5.59608L10.8011 5.5951L10.9326 5.74576ZM11.7988 4.96552L11.664 4.81776L11.6642 4.81759L11.7988 4.96552ZM11.845 4.92351L11.9797 5.07135L11.9796 5.07145L11.845 4.92351ZM16.0949 1.62853L16.1916 1.80363L16.1913 1.80377L16.0949 1.62853ZM23.3244 0.00804865L23.3308 -0.191848L23.3309 -0.191847L23.3244 0.00804865ZM30.9928 2.1927L30.8783 2.35672L30.8783 2.35669L30.9928 2.1927ZM34.3303 7.17418L34.525 7.12819L34.5251 7.12866L34.3303 7.17418ZM33.7298 12.9179L33.5382 12.8607L33.5385 12.8594L33.7298 12.9179ZM33.1466 15.0605L33.3422 15.1022L33.3422 15.1023L33.1466 15.0605ZM33.3545 15.9788L33.5119 15.8555L33.5126 15.8564L33.3545 15.9788ZM34.1225 16.4049V16.6049H34.1145L34.1065 16.6043L34.1225 16.4049ZM34.2264 16.4049L34.2739 16.5992L34.2505 16.6049H34.2264V16.4049ZM34.3246 16.3809L34.388 16.5706L34.3801 16.5732L34.3721 16.5752L34.3246 16.3809ZM37.4427 13.8122L37.2995 13.6725L37.3009 13.6712L37.4427 13.8122ZM37.6217 13.6321L37.8207 13.6121L37.8302 13.7061L37.7636 13.7731L37.6217 13.6321ZM37.4196 11.6215L37.2206 11.6415L37.2109 11.5452L37.2805 11.4778L37.4196 11.6215ZM39.533 9.5749L39.3939 9.43122L39.538 9.29164L39.6772 9.43623L39.533 9.5749ZM40.1162 10.1811L40.2604 10.0424L40.2604 10.0424L40.1162 10.1811ZM42.2412 12.3897L42.3853 12.2511L42.5287 12.4001L42.375 12.5384L42.2412 12.3897ZM40.1394 14.2803L40.2731 14.429L40.2161 14.4803H40.1394V14.2803ZM38.2396 14.2803L38.0982 14.1388L38.1568 14.0803H38.2396V14.2803ZM38.0894 14.4303L37.9468 14.2901L37.9481 14.2889L38.0894 14.4303ZM36.6863 15.7687L36.5531 15.6195L36.5534 15.6193L36.6863 15.7687ZM32.6904 16.549L32.5321 16.6712L32.5319 16.671L32.6904 16.549ZM32.3093 14.8685L32.505 14.9097L32.5048 14.9107L32.3093 14.8685ZM32.9098 12.6538L32.7184 12.596L32.7184 12.5958L32.9098 12.6538ZM33.4931 7.39625L33.2984 7.44231L33.2983 7.44171L33.4931 7.39625ZM30.5193 2.95492L30.4054 3.11931L30.405 3.11905L30.5193 2.95492ZM23.3071 0.920314L23.3134 0.720413L23.3135 0.720417L23.3071 0.920314ZM16.5107 2.43877L16.6074 2.61382L16.6073 2.61388L16.5107 2.43877ZM11.5043 6.44197L11.3716 6.29228L11.3722 6.29178L11.5043 6.44197ZM5.44121 9.77295L5.51654 9.95822L5.51597 9.95845L5.44121 9.77295ZM4.8753 10.001L4.79945 9.81596L4.80054 9.81552L4.8753 10.001ZM1.65901 12.2517L1.48412 12.1547L1.48425 12.1544L1.65901 12.2517ZM3.01019 16.0268L3.11953 15.8594V15.8594L3.01019 16.0268ZM6.90789 16.735L6.90522 16.535H6.90789V16.735ZM7.28323 16.735L7.47531 16.7908L7.43345 16.935H7.28323V16.735ZM7.39295 16.3569L7.20087 16.3012L7.2011 16.3004L7.39295 16.3569ZM12.5783 16.3449L12.7698 16.2873L12.7704 16.2892L12.5783 16.3449ZM12.688 16.723V16.923H12.5378L12.496 16.7788L12.688 16.723ZM25.0509 16.723L25.2422 16.7814L25.199 16.923H25.0509V16.723ZM25.1664 16.3449L25.3582 16.4017L25.3577 16.4033L25.1664 16.3449ZM25.1664 18.0134L25.3577 17.955L25.3579 17.9558L25.1664 18.0134ZM25.0509 17.6353V17.4353H25.199L25.2422 17.5769L25.0509 17.6353ZM12.688 17.6353L12.496 17.5796L12.5378 17.4353H12.688V17.6353ZM12.5783 18.0134L12.7704 18.0691L12.7701 18.0702L12.5783 18.0134ZM7.39873 18.0194L7.59026 17.9618L7.5904 17.9623L7.39873 18.0194ZM7.28323 17.6353V17.4353H7.43195L7.47477 17.5777L7.28323 17.6353ZM6.89633 17.6353L6.89212 17.4353H6.89633V17.6353ZM2.54825 16.795L2.65754 16.6275L2.65773 16.6277L2.54825 16.795ZM0.775517 14.6704L0.960747 14.595L0.961121 14.5959L0.775517 14.6704ZM0.908318 11.8016L0.733128 11.7051L0.733459 11.7045L0.908318 11.8016ZM4.47549 8.97596L5.04141 8.74189L5.19429 9.11152L4.62838 9.34559L4.47549 8.97596ZM5.0425 8.74144C7.17213 7.87529 9.14348 7.06428 10.8 5.59608L11.0653 5.89543C9.34957 7.41612 7.3135 8.24961 5.1932 9.11197L5.0425 8.74144ZM10.8011 5.5951C11.0878 5.3448 11.3803 5.0765 11.664 4.81776L11.9336 5.11329C11.6514 5.3707 11.3549 5.64256 11.0642 5.89641L10.8011 5.5951ZM11.6642 4.81759L11.7104 4.77558L11.9796 5.07145L11.9334 5.11345L11.6642 4.81759ZM11.7103 4.77568C13.0183 3.5838 14.3922 2.33682 15.9985 1.45329L16.1913 1.80377C14.6332 2.66076 13.2932 3.87452 11.9797 5.07135L11.7103 4.77568ZM15.9982 1.45343C18.0775 0.305683 20.6835 -0.276886 23.3308 -0.191848L23.318 0.207946C20.7337 0.124933 18.2005 0.694704 16.1916 1.80363L15.9982 1.45343ZM23.3309 -0.191847C26.5094 -0.0889846 29.1318 0.649691 31.1072 2.02871L30.8783 2.35669C28.9849 1.0349 26.445 0.309143 23.3179 0.207944L23.3309 -0.191847ZM31.1072 2.02868C32.8178 3.2222 34.029 5.0295 34.525 7.12819L34.1357 7.22018C33.6615 5.21365 32.5053 3.49189 30.8783 2.35672L31.1072 2.02868ZM34.5251 7.12866C35.0355 9.31231 34.4626 11.2038 33.9211 12.9763L33.5385 12.8594C34.0826 11.0789 34.6184 9.28533 34.1356 7.2197L34.5251 7.12866ZM33.9214 12.9751C33.7127 13.6741 33.4961 14.3796 33.3422 15.1022L32.951 15.0189C33.1089 14.277 33.3311 13.5541 33.5382 12.8607L33.9214 12.9751ZM33.3422 15.1023C33.285 15.3699 33.3473 15.6452 33.5119 15.8555L33.197 16.1021C32.9575 15.7962 32.8696 15.3993 32.951 15.0187L33.3422 15.1023ZM33.5126 15.8564C33.6709 16.0608 33.8978 16.1863 34.1384 16.2056L34.1065 16.6043C33.7466 16.5755 33.4191 16.3889 33.1963 16.1013L33.5126 15.8564ZM34.1225 16.2049H34.2264V16.6049H34.1225V16.2049ZM34.1789 16.2106L34.2771 16.1866L34.3721 16.5752L34.2739 16.5992L34.1789 16.2106ZM34.2611 16.1912C34.3974 16.1457 34.5995 16.0293 34.8512 15.851C35.0985 15.6758 35.3791 15.4513 35.6692 15.2033C36.2493 14.7075 36.8584 14.1251 37.2995 13.6726L37.5859 13.9518C37.1378 14.4115 36.5198 15.0024 35.9291 15.5074C35.6339 15.7598 35.3432 15.9926 35.0825 16.1773C34.8263 16.3589 34.5837 16.5051 34.388 16.5706L34.2611 16.1912ZM37.3009 13.6712L37.4799 13.4911L37.7636 13.7731L37.5846 13.9532L37.3009 13.6712ZM37.4227 13.6521L37.2206 11.6415L37.6186 11.6015L37.8207 13.6121L37.4227 13.6521ZM37.2805 11.4778L39.3939 9.43122L39.6722 9.71857L37.5587 11.7652L37.2805 11.4778ZM39.6772 9.43623L40.2604 10.0424L39.9721 10.3197L39.3889 9.71356L39.6772 9.43623ZM40.2604 10.0424L41.6635 11.5008L41.3753 11.7782L39.9721 10.3197L40.2604 10.0424ZM41.6635 11.5008L42.3853 12.2511L42.0971 12.5284L41.3753 11.7782L41.6635 11.5008ZM42.375 12.5384L40.2731 14.429L40.0056 14.1316L42.1075 12.241L42.375 12.5384ZM40.1394 14.4803H38.2396V14.0803H40.1394V14.4803ZM38.381 14.4218L38.2308 14.5718L37.9481 14.2889L38.0982 14.1388L38.381 14.4218ZM38.232 14.5706C37.9648 14.8423 37.4244 15.3799 36.8192 15.9182L36.5534 15.6193C37.1493 15.0893 37.6828 14.5586 37.9468 14.2901L38.232 14.5706ZM36.8195 15.9179C35.2651 17.3053 34.6143 17.5112 34.2206 17.5112V17.1112C34.4505 17.1112 35.0008 17.005 36.5531 15.6195L36.8195 15.9179ZM34.2206 17.5112C33.5565 17.5112 32.9443 17.2051 32.5321 16.6712L32.8487 16.4268C33.1872 16.8651 33.6837 17.1112 34.2206 17.1112V17.5112ZM32.5319 16.671C32.1267 16.1445 31.9743 15.4723 32.1138 14.8262L32.5048 14.9107C32.3903 15.441 32.515 15.9932 32.8489 16.427L32.5319 16.671ZM32.1136 14.8273C32.2774 14.0491 32.5052 13.3025 32.7184 12.596L33.1013 12.7116C32.8871 13.4216 32.6646 14.1513 32.505 14.9097L32.1136 14.8273ZM32.7184 12.5958C33.246 10.8544 33.7288 9.26077 33.2984 7.44231L33.6877 7.35018C34.1465 9.28885 33.6246 10.9841 33.1012 12.7118L32.7184 12.5958ZM33.2983 7.44171C32.8818 5.65747 31.8527 4.12223 30.4054 3.11931L30.6332 2.79053C32.1654 3.85223 33.2497 5.47393 33.6878 7.35078L33.2983 7.44171ZM30.405 3.11905C28.6446 1.89341 26.2609 1.21543 23.3006 1.12021L23.3135 0.720417C26.324 0.817254 28.7907 1.50768 30.6335 2.79078L30.405 3.11905ZM23.3008 1.12021C20.8605 1.04318 18.4833 1.57708 16.6074 2.61382L16.4139 2.26373C18.3606 1.18784 20.8108 0.641405 23.3134 0.720413L23.3008 1.12021ZM16.6073 2.61388C15.1416 3.42285 13.8364 4.60633 12.5625 5.76185L12.2938 5.46558C13.5607 4.31641 14.9002 3.09919 16.414 2.26367L16.6073 2.61388ZM12.5625 5.76185C12.2448 6.05008 11.9378 6.32701 11.6364 6.59215L11.3722 6.29178C11.6713 6.02876 11.9764 5.75353 12.2938 5.46558L12.5625 5.76185ZM11.6369 6.59165C9.80573 8.21436 7.60801 9.10785 5.51654 9.95822L5.36588 9.58768C7.4666 8.73355 9.59965 7.86252 11.3717 6.29228L11.6369 6.59165ZM5.51597 9.95845L4.95006 10.1865L4.80054 9.81552L5.36645 9.58745L5.51597 9.95845ZM4.95116 10.1861C4.33765 10.4376 3.70169 10.7172 3.14419 11.0683C2.58659 11.4194 2.12029 11.8341 1.83378 12.3489L1.48425 12.1544C1.8156 11.559 2.34247 11.1004 2.93106 10.7298C3.51976 10.3591 4.18302 10.0686 4.79945 9.81596L4.95116 10.1861ZM1.8339 12.3487C1.42685 13.0824 1.36255 14.7123 3.11953 15.8594L2.90086 16.1943C0.962242 14.9286 0.978821 13.0655 1.48412 12.1547L1.8339 12.3487ZM3.11953 15.8594C4.20861 16.5704 5.54016 16.5532 6.90522 16.535L6.91055 16.935C5.57322 16.9528 4.10998 16.9837 2.90086 16.1943L3.11953 15.8594ZM6.90789 16.535H7.28323V16.935H6.90789V16.535ZM7.09116 16.6793L7.20087 16.3012L7.58503 16.4126L7.47531 16.7908L7.09116 16.6793ZM7.2011 16.3004C7.57126 15.0436 8.71424 14.1583 9.98563 14.1583V14.5583C8.90108 14.5583 7.90757 15.3175 7.5848 16.4134L7.2011 16.3004ZM9.98563 14.1583C11.2568 14.1583 12.3936 15.0372 12.7698 16.2873L12.3868 16.4026C12.0586 15.3119 11.0704 14.5583 9.98563 14.5583V14.1583ZM12.7704 16.2892L12.8801 16.6673L12.496 16.7788L12.3862 16.4006L12.7704 16.2892ZM12.688 16.523H25.0509V16.923H12.688V16.523ZM24.8597 16.6646L24.9751 16.2865L25.3577 16.4033L25.2422 16.7814L24.8597 16.6646ZM24.9746 16.2881C25.3451 15.0367 26.4886 14.1583 27.7591 14.1583V14.5583C26.6737 14.5583 25.6806 15.3124 25.3582 16.4017L24.9746 16.2881ZM27.7591 14.1583C29.3723 14.1583 30.6731 15.5216 30.6731 17.1792H30.2731C30.2731 15.7278 29.137 14.5583 27.7591 14.5583V14.1583ZM30.6731 17.1792C30.6731 18.8367 29.3723 20.2 27.7591 20.2V19.8C29.137 19.8 30.2731 18.6305 30.2731 17.1792H30.6731ZM27.7591 20.2C26.488 20.2 25.3511 19.3211 24.9749 18.0711L25.3579 17.9558C25.6862 19.0464 26.6743 19.8 27.7591 19.8V20.2ZM24.9751 18.0718L24.8597 17.6937L25.2422 17.5769L25.3577 17.955L24.9751 18.0718ZM25.0509 17.8353H12.688V17.4353H25.0509V17.8353ZM12.8801 17.691L12.7704 18.0691L12.3862 17.9577L12.496 17.5796L12.8801 17.691ZM12.7701 18.0702C12.3996 19.3216 11.2561 20.2 9.98563 20.2V19.8C11.0711 19.8 12.0641 19.0459 12.3865 17.9566L12.7701 18.0702ZM9.98563 20.2C8.71559 20.2 7.5835 19.3401 7.20705 18.0765L7.5904 17.9623C7.91843 19.0634 8.89973 19.8 9.98563 19.8V20.2ZM7.2072 18.077L7.09171 17.6929L7.47477 17.5777L7.59026 17.9618L7.2072 18.077ZM7.28323 17.8353H6.89633V17.4353H7.28323V17.8353ZM6.90054 17.8353C5.48146 17.8651 3.8373 17.8772 2.43877 16.9624L2.65773 16.6277C3.93851 17.4654 5.45866 17.4655 6.89212 17.4353L6.90054 17.8353ZM2.43896 16.9625C1.61546 16.4252 0.940971 15.6194 0.589916 14.7449L0.961121 14.5959C1.27989 15.3899 1.89887 16.1325 2.65754 16.6275L2.43896 16.9625ZM0.59029 14.7458C0.170322 13.7147 0.223217 12.631 0.733128 11.7051L1.08351 11.898C0.634872 12.7127 0.583851 13.6696 0.960747 14.595L0.59029 14.7458ZM0.733459 11.7045C1.52814 10.2732 3.11933 9.53742 4.48149 8.97587L4.63395 9.34568C3.25906 9.91247 1.80137 10.6051 1.08317 11.8986L0.733459 11.7045ZM27.7591 18.8937C28.6577 18.8937 29.4011 18.1324 29.4011 17.1792H29.8011C29.8011 18.3386 28.8931 19.2937 27.7591 19.2937V18.8937ZM29.4011 17.1792C29.4011 16.226 28.6577 15.4646 27.7591 15.4646V15.0646C28.8931 15.0646 29.8011 16.0197 29.8011 17.1792H29.4011ZM27.7591 15.4646C26.8605 15.4646 26.1171 16.226 26.1171 17.1792H25.7171C25.7171 16.0197 26.6252 15.0646 27.7591 15.0646V15.4646ZM26.1171 17.1792C26.1171 18.1324 26.8605 18.8937 27.7591 18.8937V19.2937C26.6252 19.2937 25.7171 18.3386 25.7171 17.1792H26.1171ZM9.99141 18.8937C10.89 18.8937 11.6334 18.1324 11.6334 17.1792H12.0334C12.0334 18.3386 11.1254 19.2937 9.99141 19.2937V18.8937ZM11.6334 17.1792C11.6334 16.226 10.89 15.4646 9.99141 15.4646V15.0646C11.1254 15.0646 12.0334 16.0197 12.0334 17.1792H11.6334ZM9.99141 15.4646C9.09279 15.4646 8.34939 16.226 8.34939 17.1792H7.94939C7.94939 16.0197 8.85746 15.0646 9.99141 15.0646V15.4646ZM8.34939 17.1792C8.34939 18.1324 9.09279 18.8937 9.99141 18.8937V19.2937C8.85746 19.2937 7.94939 18.3386 7.94939 17.1792H8.34939Z" fill="#B2B0B0" mask="url(#path-1-inside-1_582_513)"/>
<mask id="path-3-inside-2_582_513" fill="white">
<path d="M40.2562 10.768C40.3247 10.768 40.3931 10.7512 40.4501 10.7132L42.1438 9.60496C42.2635 9.52489 42.2749 9.39004 42.1666 9.30155C42.0582 9.21305 41.8758 9.20462 41.756 9.28469L40.0623 10.393C39.9426 10.473 39.9312 10.6079 40.0395 10.6964C40.0966 10.7427 40.1764 10.768 40.2562 10.768Z"/>
</mask>
<path d="M40.2562 10.768C40.3247 10.768 40.3931 10.7512 40.4501 10.7132L42.1438 9.60496C42.2635 9.52489 42.2749 9.39004 42.1666 9.30155C42.0582 9.21305 41.8758 9.20462 41.756 9.28469L40.0623 10.393C39.9426 10.473 39.9312 10.6079 40.0395 10.6964C40.0966 10.7427 40.1764 10.768 40.2562 10.768Z" fill="#B2B0B0"/>
<path d="M40.4501 10.7132L40.3394 10.5467L40.3406 10.5459L40.4501 10.7132ZM42.1438 9.60496L42.2549 9.77123L42.2533 9.77231L42.1438 9.60496ZM41.756 9.28469L41.8672 9.45096L41.8655 9.45204L41.756 9.28469ZM40.0623 10.393L39.9512 10.2267L39.9528 10.2256L40.0623 10.393ZM40.0395 10.6964L39.9134 10.8516L39.913 10.8513L40.0395 10.6964ZM40.2562 10.568C40.2931 10.568 40.3211 10.5588 40.3394 10.5467L40.5609 10.8798C40.4651 10.9435 40.3563 10.968 40.2562 10.968V10.568ZM40.3406 10.5459L42.0343 9.4376L42.2533 9.77231L40.5596 10.8806L40.3406 10.5459ZM42.0326 9.43869C42.0423 9.43223 42.045 9.42787 42.0448 9.42824C42.0444 9.42882 42.0419 9.43316 42.0413 9.44084C42.0407 9.44872 42.0424 9.45551 42.0444 9.45963C42.0461 9.46345 42.0465 9.46169 42.0401 9.45645L42.2931 9.14665C42.3902 9.22591 42.4502 9.34234 42.4401 9.47198C42.4302 9.59935 42.3553 9.70409 42.2549 9.77122L42.0326 9.43869ZM42.0401 9.45645C42.0012 9.42466 41.9152 9.41881 41.8672 9.45095L41.6449 9.11843C41.8363 8.99044 42.1153 9.00145 42.2931 9.14665L42.0401 9.45645ZM41.8655 9.45204L40.1719 10.5603L39.9528 10.2256L41.6465 9.11733L41.8655 9.45204ZM40.1735 10.5592C40.1638 10.5657 40.1611 10.5701 40.1614 10.5697C40.1617 10.5691 40.1642 10.5648 40.1648 10.5571C40.1654 10.5492 40.1637 10.5424 40.1618 10.5383C40.16 10.5345 40.1596 10.5362 40.166 10.5415L39.913 10.8513C39.816 10.772 39.7559 10.6556 39.766 10.5259C39.776 10.3986 39.8508 10.2938 39.9512 10.2267L40.1735 10.5592ZM40.1657 10.5412C40.1817 10.5542 40.2149 10.568 40.2562 10.568V10.968C40.1379 10.968 40.0114 10.9313 39.9134 10.8516L40.1657 10.5412Z" fill="#B2B0B0" mask="url(#path-3-inside-2_582_513)"/>
<mask id="path-5-inside-3_582_513" fill="white">
<path d="M41.015 12.3071C41.0834 12.3071 41.1519 12.2818 41.2089 12.2249L42.9026 10.5625C43.0223 10.4424 43.0337 10.2402 42.9254 10.1074C42.817 9.97467 42.6346 9.96202 42.5148 10.0821L40.8211 11.7445C40.7014 11.8646 40.69 12.0669 40.7983 12.1997C40.8553 12.2692 40.9352 12.3071 41.015 12.3071Z"/>
</mask>
<path d="M41.015 12.3071C41.0834 12.3071 41.1519 12.2818 41.2089 12.2249L42.9026 10.5625C43.0223 10.4424 43.0337 10.2402 42.9254 10.1074C42.817 9.97467 42.6346 9.96202 42.5148 10.0821L40.8211 11.7445C40.7014 11.8646 40.69 12.0669 40.7983 12.1997C40.8553 12.2692 40.9352 12.3071 41.015 12.3071Z" fill="#B2B0B0"/>
<path d="M41.2089 12.2249L41.0676 12.0833L41.0688 12.0822L41.2089 12.2249ZM42.9026 10.5625L43.0442 10.7038L43.0427 10.7053L42.9026 10.5625ZM42.5148 10.0821L42.6564 10.2233L42.6549 10.2249L42.5148 10.0821ZM40.8211 11.7445L40.6795 11.6033L40.681 11.6018L40.8211 11.7445ZM40.7983 12.1997L40.6437 12.3265L40.6434 12.3261L40.7983 12.1997ZM41.015 12.1071C41.0244 12.1071 41.0327 12.1054 41.0404 12.1023C41.048 12.0992 41.0573 12.0937 41.0677 12.0833L41.3502 12.3665C41.255 12.4615 41.1355 12.5071 41.015 12.5071V12.1071ZM41.0688 12.0822L42.7625 10.4198L43.0427 10.7053L41.349 12.3677L41.0688 12.0822ZM42.7609 10.4213C42.8089 10.3732 42.8134 10.2865 42.7704 10.2339L43.0803 9.98094C43.254 10.1938 43.2358 10.5116 43.0442 10.7037L42.7609 10.4213ZM42.7704 10.2339C42.7498 10.2086 42.7277 10.2006 42.7116 10.1995C42.696 10.1985 42.6764 10.2033 42.6564 10.2233L42.3732 9.94091C42.5806 9.7329 42.9006 9.76078 43.0803 9.98094L42.7704 10.2339ZM42.6549 10.2249L40.9612 11.8873L40.681 11.6018L42.3747 9.93939L42.6549 10.2249ZM40.9628 11.8858C40.9148 11.9338 40.9103 12.0205 40.9533 12.0732L40.6434 12.3261C40.4697 12.1133 40.4879 11.7955 40.6795 11.6033L40.9628 11.8858ZM40.953 12.0728C40.9746 12.0993 40.9991 12.1071 41.015 12.1071V12.5071C40.8712 12.5071 40.7361 12.4391 40.6437 12.3265L40.953 12.0728Z" fill="#B2B0B0" mask="url(#path-5-inside-3_582_513)"/>
</svg>
