<svg width="28" height="30" viewBox="0 0 28 30" fill="none" xmlns="http://www.w3.org/2000/svg">
<path d="M1.07602 29.998H27.6858C27.8622 29.998 28 29.8527 28 29.6794C28 29.5061 27.8567 29.3608 27.6858 29.3608H1.07602C0.899645 29.3608 0.756351 29.5061 0.756351 29.6794C0.756351 29.8527 0.899645 29.998 1.07602 29.998Z" fill="#B2B0B0"/>
<path d="M18.9555 30H23.0946C23.271 30 23.4143 29.8546 23.4143 29.6814V27.3059C23.4143 27.1271 23.271 26.9873 23.0946 26.9873H18.9555C18.7791 26.9873 18.6358 27.1326 18.6358 27.3059V29.6814C18.6358 29.8602 18.7791 30 18.9555 30ZM22.775 29.3572H19.2696V27.6245H22.775V29.3572Z" fill="#B2B0B0"/>
<path d="M15.9627 29.9978H26.0819C26.2583 29.9978 26.4016 29.8524 26.4016 29.6792V7.47286C26.4016 7.294 26.2583 7.15427 26.0819 7.15427H15.9627C15.7863 7.15427 15.6486 7.29959 15.6486 7.47286V29.6792C15.6486 29.858 15.7919 29.9978 15.9627 29.9978ZM25.7678 29.355H16.2824V7.79144H25.7678V29.355Z" fill="#B2B0B0"/>
<path d="M17.2413 5.41646H24.7977C24.974 5.41646 25.1118 5.27115 25.1118 5.09788V2.51003C25.1118 2.33117 24.9685 2.19144 24.7977 2.19144H17.2413C17.0649 2.19144 16.9216 2.33676 16.9216 2.51003V5.09788C16.9216 5.27674 17.0649 5.41646 17.2413 5.41646ZM24.4835 4.7737H17.561V2.82303H24.4835V4.7737Z" fill="#B2B0B0"/>
<path d="M18.5472 7.79138H23.5021C23.6785 7.79138 23.8218 7.64607 23.8218 7.4728V5.09734C23.8218 4.91848 23.6785 4.77875 23.5021 4.77875H18.5472C18.3708 4.77875 18.2331 4.92407 18.2331 5.09734V7.4728C18.2331 7.65166 18.3764 7.79138 18.5472 7.79138ZM23.1824 7.14861H18.8614V5.41592H23.1824V7.14861Z" fill="#B2B0B0"/>
<path d="M21.0223 2.82819C21.1986 2.82819 21.3364 2.68286 21.3364 2.50959V0.324172C21.3364 0.145315 21.1931 0 21.0223 0C20.8514 0 20.7026 0.145315 20.7026 0.324172V2.50959C20.7026 2.68845 20.8459 2.82819 21.0223 2.82819Z" fill="#B2B0B0"/>
<path d="M22.3508 13.3828H23.8279C24.0043 13.3828 24.1421 13.2375 24.1421 13.0643C24.1421 12.891 23.9988 12.7457 23.8279 12.7457H22.3508C22.1745 12.7457 22.0367 12.891 22.0367 13.0643C22.0367 13.2375 22.18 13.3828 22.3508 13.3828Z" fill="#B2B0B0"/>
<path d="M22.3508 15.7515H23.8279C24.0043 15.7515 24.1421 15.6062 24.1421 15.4329C24.1421 15.2596 23.9988 15.1143 23.8279 15.1143H22.3508C22.1745 15.1143 22.0367 15.2596 22.0367 15.4329C22.0367 15.6062 22.18 15.7515 22.3508 15.7515Z" fill="#B2B0B0"/>
<path d="M22.3508 18.127H23.8279C24.0043 18.127 24.1421 17.9817 24.1421 17.8084C24.1421 17.6351 23.9988 17.4898 23.8279 17.4898H22.3508C22.1745 17.4898 22.0367 17.6351 22.0367 17.8084C22.0367 17.9817 22.18 18.127 22.3508 18.127Z" fill="#B2B0B0"/>
<path d="M22.3508 20.5026H23.8279C24.0043 20.5026 24.1421 20.3573 24.1421 20.184C24.1421 20.0107 23.9988 19.8654 23.8279 19.8654H22.3508C22.1745 19.8654 22.0367 20.0107 22.0367 20.184C22.0367 20.3573 22.18 20.5026 22.3508 20.5026Z" fill="#B2B0B0"/>
<path d="M22.3508 22.8781H23.8279C24.0043 22.8781 24.1421 22.7327 24.1421 22.5595C24.1421 22.3862 23.9988 22.2409 23.8279 22.2409H22.3508C22.1745 22.2409 22.0367 22.3862 22.0367 22.5595C22.0367 22.7327 22.18 22.8781 22.3508 22.8781Z" fill="#B2B0B0"/>
<path d="M22.3508 25.2537H23.8279C24.0043 25.2537 24.1421 25.1084 24.1421 24.9351C24.1421 24.7618 23.9988 24.6165 23.8279 24.6165H22.3508C22.1745 24.6165 22.0367 24.7618 22.0367 24.9351C22.0367 25.1084 22.18 25.2537 22.3508 25.2537Z" fill="#B2B0B0"/>
<path d="M18.2169 13.3828H19.694C19.8704 13.3828 20.0137 13.2375 20.0137 13.0643C20.0137 12.891 19.8704 12.7457 19.694 12.7457H18.2169C18.0405 12.7457 17.8972 12.891 17.8972 13.0643C17.8972 13.2375 18.0405 13.3828 18.2169 13.3828Z" fill="#B2B0B0"/>
<path d="M22.3508 11.0049H23.8279C24.0043 11.0049 24.1421 10.8596 24.1421 10.6864C24.1421 10.5131 23.9988 10.3678 23.8279 10.3678H22.3508C22.1745 10.3678 22.0367 10.5131 22.0367 10.6864C22.0367 10.8596 22.18 11.0049 22.3508 11.0049Z" fill="#B2B0B0"/>
<path d="M18.2169 11.0049H19.694C19.8704 11.0049 20.0137 10.8596 20.0137 10.6864C20.0137 10.5131 19.8704 10.3678 19.694 10.3678H18.2169C18.0405 10.3678 17.8972 10.5131 17.8972 10.6864C17.8972 10.8596 18.0405 11.0049 18.2169 11.0049Z" fill="#B2B0B0"/>
<path d="M18.2169 15.7515H19.694C19.8704 15.7515 20.0137 15.6062 20.0137 15.4329C20.0137 15.2596 19.8704 15.1143 19.694 15.1143H18.2169C18.0405 15.1143 17.8972 15.2596 17.8972 15.4329C17.8972 15.6062 18.0405 15.7515 18.2169 15.7515Z" fill="#B2B0B0"/>
<path d="M18.2169 18.127H19.694C19.8704 18.127 20.0137 17.9817 20.0137 17.8084C20.0137 17.6351 19.8704 17.4898 19.694 17.4898H18.2169C18.0405 17.4898 17.8972 17.6351 17.8972 17.8084C17.8972 17.9817 18.0405 18.127 18.2169 18.127Z" fill="#B2B0B0"/>
<path d="M18.2169 20.5026H19.694C19.8704 20.5026 20.0137 20.3573 20.0137 20.184C20.0137 20.0107 19.8704 19.8654 19.694 19.8654H18.2169C18.0405 19.8654 17.8972 20.0107 17.8972 20.184C17.8972 20.3573 18.0405 20.5026 18.2169 20.5026Z" fill="#B2B0B0"/>
<path d="M18.2169 22.8781H19.694C19.8704 22.8781 20.0137 22.7327 20.0137 22.5595C20.0137 22.3862 19.8704 22.2409 19.694 22.2409H18.2169C18.0405 22.2409 17.8972 22.3862 17.8972 22.5595C17.8972 22.7327 18.0405 22.8781 18.2169 22.8781Z" fill="#B2B0B0"/>
<path d="M18.2169 25.2537H19.694C19.8704 25.2537 20.0137 25.1084 20.0137 24.9351C20.0137 24.7618 19.8704 24.6165 19.694 24.6165H18.2169C18.0405 24.6165 17.8972 24.7618 17.8972 24.9351C17.8972 25.1084 18.0405 25.2537 18.2169 25.2537Z" fill="#B2B0B0"/>
<path d="M7.27586 18.127H13.4323C13.6087 18.127 13.752 17.9817 13.752 17.8084C13.752 17.6351 13.6087 17.4898 13.4323 17.4898H7.27586C7.09949 17.4898 6.96171 17.6351 6.96171 17.8084C6.96171 17.9817 7.10501 18.127 7.27586 18.127Z" fill="#B2B0B0"/>
<path d="M7.27586 20.5026H13.4323C13.6087 20.5026 13.752 20.3573 13.752 20.184C13.752 20.0107 13.6087 19.8654 13.4323 19.8654H7.27586C7.09949 19.8654 6.96171 20.0107 6.96171 20.184C6.96171 20.3573 7.10501 20.5026 7.27586 20.5026Z" fill="#B2B0B0"/>
<path d="M7.27586 22.8781H13.4323C13.6087 22.8781 13.752 22.7327 13.752 22.5595C13.752 22.3862 13.6087 22.2409 13.4323 22.2409H7.27586C7.09949 22.2409 6.96171 22.3862 6.96171 22.5595C6.96171 22.7327 7.10501 22.8781 7.27586 22.8781Z" fill="#B2B0B0"/>
<path d="M7.27586 25.2537H13.4323C13.6087 25.2537 13.752 25.1084 13.752 24.9351C13.752 24.7618 13.6087 24.6165 13.4323 24.6165H7.27586C7.09949 24.6165 6.96171 24.7618 6.96171 24.9351C6.96171 25.1084 7.10501 25.2537 7.27586 25.2537Z" fill="#B2B0B0"/>
<path d="M3.60571 18.127H5.08281C5.25918 18.127 5.39697 17.9817 5.39697 17.8084C5.39697 17.6351 5.25367 17.4898 5.08281 17.4898H3.60571C3.42934 17.4898 3.28604 17.6351 3.28604 17.8084C3.28604 17.9817 3.42934 18.127 3.60571 18.127Z" fill="#B2B0B0"/>
<path d="M3.60571 20.5026H5.08281C5.25918 20.5026 5.39697 20.3573 5.39697 20.184C5.39697 20.0107 5.25367 19.8654 5.08281 19.8654H3.60571C3.42934 19.8654 3.28604 20.0107 3.28604 20.184C3.28604 20.3573 3.42934 20.5026 3.60571 20.5026Z" fill="#B2B0B0"/>
<path d="M3.60571 22.8781H5.08281C5.25918 22.8781 5.39697 22.7327 5.39697 22.5595C5.39697 22.3862 5.25367 22.2409 5.08281 22.2409H3.60571C3.42934 22.2409 3.28604 22.3862 3.28604 22.5595C3.28604 22.7327 3.42934 22.8781 3.60571 22.8781Z" fill="#B2B0B0"/>
<path d="M3.60571 25.2537H5.08281C5.25918 25.2537 5.39697 25.1084 5.39697 24.9351C5.39697 24.7618 5.25367 24.6165 5.08281 24.6165H3.60571C3.42934 24.6165 3.28604 24.7618 3.28604 24.9351C3.28604 25.1084 3.42934 25.2537 3.60571 25.2537Z" fill="#B2B0B0"/>
<path d="M1.07583 27.6288H15.9626C16.1389 27.6288 16.2822 27.4835 16.2822 27.3102V15.4385C16.2822 15.2597 16.1389 15.1143 15.9626 15.1143H1.07583C0.899456 15.1143 0.756163 15.2597 0.756163 15.4385V27.3102C0.756163 27.4891 0.899456 27.6288 1.07583 27.6288ZM15.6429 26.986H1.38999V15.7571H15.6429V26.986Z" fill="#B2B0B0"/>
<path d="M2.67432 30H15.9572C16.1336 30 16.2769 29.8546 16.2769 29.6814V27.3059C16.2769 27.1271 16.1336 26.9873 15.9572 26.9873H2.67432C2.49795 26.9873 2.35465 27.1326 2.35465 27.3059V29.6814C2.35465 29.8602 2.49795 30 2.67432 30ZM15.643 29.3572H2.99399V27.6245H15.643V29.3572Z" fill="#B2B0B0"/>
</svg>
