<svg width="45" height="25" viewBox="0 0 45 25" fill="none" xmlns="http://www.w3.org/2000/svg">
<path d="M33.6764 10.3935L38.3581 13.5485L38.0404 17.0075L38.3521 17.3236L40.0785 14.7583L40.4681 14.3631L40.7199 14.6184L41.2234 14.1078L40.9717 13.8525L41.4093 13.4148L43.885 11.7066L43.5733 11.3905L40.1624 11.7126L37.0513 6.9649L43.3215 3.18371L42.2365 2.0834L34.1319 4.10774L33.9881 3.974C32.7592 2.8129 28.9767 -0.226641 27.7778 0.989174C26.5848 2.19891 29.5761 6.0348 30.7211 7.28709L30.8529 7.433L29.4502 13.1959C29.2464 13.0379 29.0366 12.8981 28.8208 12.7643L30.0677 7.63968C29.1985 6.66095 25.4938 2.29009 27.2742 0.4846C29.0546 -1.32088 33.3706 2.43599 34.3298 3.31745L42.4523 1.28704L44.4725 3.33569L38.0583 7.20199L40.5161 10.9528L43.8371 10.6427L45 11.8221L41.8589 13.9802L40.618 15.2324L38.448 18.4665L37.285 17.2872L37.5908 13.9194L33.8862 11.4269L31.4344 15.6154C31.3085 15.3723 31.1706 15.1352 31.0148 14.9102L33.6584 10.4057L33.6764 10.3935Z" fill="#B2B0B0"/>
<path d="M30.8111 4.06025C31.0868 3.78062 31.4585 3.62256 31.8481 3.62256V4.34597C31.6503 4.34597 31.4585 4.42499 31.3146 4.57089C31.1708 4.71679 31.0928 4.90525 31.0928 5.11194H30.3795C30.3795 4.71072 30.5293 4.33989 30.8111 4.06025Z" fill="#B2B0B0"/>
<path d="M29.2402 14.1009L29.462 13.1891C30.0794 13.6633 30.607 14.2408 31.0386 14.8973L30.553 15.7241C30.2053 15.1161 29.7617 14.5629 29.2402 14.107" fill="#B2B0B0"/>
<path d="M30.5533 15.718L31.0389 14.8912C31.1888 15.1162 31.3326 15.3532 31.4585 15.5964L30.937 16.4839C30.8291 16.2165 30.6972 15.9612 30.5593 15.7119" fill="#B2B0B0"/>
<path d="M29.241 14.1016C29.0432 13.9314 28.8334 13.7794 28.6176 13.6335L28.8274 12.7581C29.0432 12.8919 29.259 13.0317 29.4568 13.1897L29.235 14.1016H29.241Z" fill="#B2B0B0"/>
<path d="M0.226906 24.3375H29.4082V25.0001H0.226906V24.3375Z" fill="#B2B0B0"/>
<path d="M6.22104 22.5384H29.4078V21.8758H6.22104C3.52951 21.8758 1.16765 19.8758 1.16765 18.666C1.16765 16.1736 8.75672 8.98207 20.494 8.98207H29.4138V8.31946H20.494C9.15236 8.31946 0.514256 15.2192 0.514256 18.6721C0.514256 20.3621 3.28372 22.5506 6.22703 22.5506" fill="#B2B0B0"/>
<path d="M2.151 16.3574C6.45506 16.0474 13.7744 13.8589 15.0872 9.32395L14.4577 9.1355C13.2409 13.3483 6.23926 15.3969 2.10904 15.6948L2.157 16.3574H2.151Z" fill="#B2B0B0"/>
<path d="M14.3321 16.3734H29.4023V15.7108H14.3861L17.1196 12.9387C17.2874 12.7685 17.5092 12.6773 17.749 12.6773H29.4023V12.0147H17.749C17.3354 12.0147 16.9458 12.1788 16.658 12.4706L13.8826 15.2792C13.7027 15.4616 13.6488 15.7351 13.7447 15.9783C13.8406 16.2214 14.0744 16.3734 14.3261 16.3734" fill="#B2B0B0"/>
<path d="M19.3549 12.3449H20.0083V16.041H19.3549V12.3449Z" fill="#B2B0B0"/>
</svg>
