<svg width="34" height="30" viewBox="0 0 34 30" fill="none" xmlns="http://www.w3.org/2000/svg">
<path d="M9.10535 5.45121H15.2446C15.4814 5.45121 15.6709 5.25909 15.6709 5.01894C15.6709 4.77879 15.4814 4.58667 15.2446 4.58667H9.10535C8.86854 4.58667 8.67909 4.77879 8.67909 5.01894C8.67909 5.25909 8.86854 5.45121 9.10535 5.45121Z" fill="#B2B0B0"/>
<path d="M9.10535 9.04624H15.2446C15.4814 9.04624 15.6709 8.85412 15.6709 8.61397C15.6709 8.37382 15.4814 8.1817 15.2446 8.1817H9.10535C8.86854 8.1817 8.67909 8.37382 8.67909 8.61397C8.67909 8.85412 8.86854 9.04624 9.10535 9.04624Z" fill="#B2B0B0"/>
<path d="M9.10535 12.6366H15.2446C15.4814 12.6366 15.6709 12.4445 15.6709 12.2043C15.6709 11.9642 15.4814 11.772 15.2446 11.772H9.10535C8.86854 11.772 8.67909 11.9642 8.67909 12.2043C8.67909 12.4445 8.86854 12.6366 9.10535 12.6366Z" fill="#B2B0B0"/>
<path d="M23.7223 18.673C27.3573 18.673 30.3115 15.6771 30.3115 11.9908C30.3115 8.30453 27.3573 5.30865 23.7223 5.30865C20.0873 5.30865 17.1331 8.30453 17.1331 11.9908C17.1331 15.6771 20.0873 18.673 23.7223 18.673ZM23.7223 6.16721C26.8896 6.16721 29.4649 8.77883 29.4649 11.9908C29.4649 15.2028 26.8896 17.8145 23.7223 17.8145C20.555 17.8145 17.9797 15.2028 17.9797 11.9908C17.9797 8.77883 20.555 6.16721 23.7223 6.16721Z" fill="#B2B0B0"/>
<path d="M13.8771 30H33.5737C33.8106 30 34 29.8078 34 29.5677V24.2183C34 24.0802 33.929 23.9422 33.8165 23.8641L28.506 20.1298C28.3876 20.0517 28.2455 20.0277 28.1094 20.0818L23.7284 21.7868L19.3474 20.0818C19.2172 20.0277 19.0691 20.0517 18.9507 20.1298L13.6344 23.8641C13.5219 23.9422 13.4508 24.0742 13.4508 24.2183V29.5677C13.4508 29.8078 13.6403 30 13.8771 30ZM33.1475 29.1354H14.3033V24.4465L19.2467 20.9703L23.5744 22.6514C23.6751 22.6874 23.7817 22.6874 23.8764 22.6514L28.2041 20.9703L33.1475 24.4465V29.1354Z" fill="#B2B0B0"/>
<path d="M6.2689 27.3934H11.4846C11.7214 27.3934 11.9109 27.5856 11.9109 27.8257C11.9109 28.0659 11.7214 28.258 11.4846 28.258H5.84264C5.60583 28.258 5.41638 28.0659 5.41638 27.8257V25.4182H6.2689V27.3994V27.3934Z" fill="#B2B0B0"/>
<path d="M5.41725 0.432271C5.41725 0.192121 5.6067 0 5.84351 0H28.4529C28.6897 0 28.8792 0.192121 28.8792 0.432271V4.68893C28.8792 4.92908 28.6897 5.1212 28.4529 5.1212C28.2161 5.1212 28.0267 4.92908 28.0267 4.68893V0.864542H6.26976V14.1689H5.41725V0.432271Z" fill="#B2B0B0"/>
<path d="M4.80685 25.6725H6.94405L7.1335 24.5258C7.53608 24.4177 7.9268 24.2556 8.28794 24.0455L9.21742 24.7239L10.733 23.1869L10.064 22.2444C10.2712 21.8781 10.4311 21.4879 10.5435 21.0736L11.6743 20.8815V18.7142L10.5435 18.522C10.437 18.1078 10.2771 17.7175 10.064 17.3513L10.733 16.4087L9.21742 14.8778L8.28794 15.5502C7.9268 15.34 7.542 15.1779 7.1335 15.0699L6.94405 13.9232H4.80685L4.6174 15.0699C4.21482 15.1779 3.82408 15.34 3.46295 15.5502L2.53346 14.8778L1.01789 16.4087L1.68688 17.3573C1.47967 17.7235 1.31983 18.1138 1.21326 18.528L0.0824947 18.7201V20.8875L1.21326 21.0796C1.31983 21.4879 1.47967 21.8841 1.6928 22.2504L1.02381 23.193L2.53939 24.7239L3.46887 24.0515C3.83001 24.2616 4.21481 24.4237 4.62331 24.5318L4.81276 25.6785L4.80685 25.6725ZM6.51779 25.1622H5.23311L5.09694 24.3217C5.07918 24.1956 4.97854 24.0875 4.86013 24.0575C4.42204 23.9494 4.00761 23.7753 3.62871 23.5412C3.52215 23.4751 3.38006 23.4811 3.27349 23.5532L2.59267 24.0455L1.68097 23.1269L2.16641 22.4365C2.23746 22.3284 2.24339 22.1843 2.17826 22.0763C1.94738 21.692 1.77568 21.2718 1.66912 20.8275C1.63951 20.7014 1.53295 20.6053 1.40862 20.5813L0.579793 20.4432V19.1404L1.40862 19.0023C1.53295 18.9783 1.63359 18.8823 1.66912 18.7622C1.77568 18.3179 1.94738 17.8976 2.17826 17.5134C2.24339 17.4053 2.23746 17.2552 2.16641 17.1532L1.68097 16.4628L2.59267 15.5442L3.27349 16.0365C3.38006 16.1085 3.52215 16.1145 3.62871 16.0485C4.00761 15.8143 4.42204 15.6402 4.86013 15.5322C4.98446 15.5021 5.07918 15.3941 5.10286 15.268L5.23902 14.4275H6.52372L6.65987 15.268C6.68355 15.3941 6.77828 15.4961 6.9026 15.5322C7.3407 15.6402 7.75513 15.8143 8.13402 16.0485C8.24059 16.1145 8.38268 16.1085 8.48924 16.0365L9.17007 15.5442L10.0818 16.4628L9.59632 17.1532C9.52528 17.2612 9.51935 17.4053 9.58447 17.5134C9.81536 17.8976 9.98706 18.3179 10.0936 18.7622C10.1232 18.8883 10.2298 18.9843 10.3541 19.0083L11.1829 19.1464V20.4492L10.3541 20.5873C10.2298 20.6113 10.1291 20.7074 10.0936 20.8335C9.98706 21.2778 9.81536 21.698 9.58447 22.0823C9.51935 22.1903 9.52528 22.3404 9.59632 22.4425L10.0818 23.1329L9.17007 24.0515L8.48924 23.5592C8.38268 23.4871 8.24059 23.4811 8.13402 23.5472C7.75513 23.7813 7.3407 23.9554 6.9026 24.0635C6.77828 24.0935 6.68355 24.2016 6.65987 24.3277L6.52372 25.1682L6.51779 25.1622Z" fill="#B2B0B0"/>
</svg>
