<svg width="26" height="32" viewBox="0 0 26 32" fill="none" xmlns="http://www.w3.org/2000/svg">
<path d="M25.1 20.0094C25.1 20.2424 24.9129 20.4415 24.6795 20.4415C24.4462 20.4415 24.2591 20.2424 24.2591 20.0094V18.1374C24.2591 17.9044 24.4462 17.7053 24.6795 17.7053C24.9129 17.7053 25.1 17.9044 25.1 18.1374V20.0094Z" fill="#B2B0B0" stroke="#B2B0B0" stroke-width="0.2"/>
<path d="M1.74087 20.0094C1.74087 20.2424 1.55377 20.4415 1.32041 20.4415C1.08704 20.4415 0.899942 20.2424 0.899942 20.0094V18.1374C0.899942 17.9044 1.08704 17.7053 1.32041 17.7053C1.55377 17.7053 1.74087 17.9044 1.74087 18.1374V20.0094Z" fill="#B2B0B0" stroke="#B2B0B0" stroke-width="0.2"/>
<path d="M23.0724 10.9697C23.0724 11.2027 22.8853 11.4018 22.6519 11.4018C22.4186 11.4018 22.2315 11.2027 22.2315 10.9697V9.0977C22.2315 8.86472 22.4186 8.66558 22.6519 8.66558C22.8853 8.66558 23.0724 8.86472 23.0724 9.0977V10.9697Z" fill="#B2B0B0" stroke="#B2B0B0" stroke-width="0.2"/>
<path d="M3.76943 10.9697C3.76943 11.2027 3.58234 11.4018 3.34897 11.4018C3.1156 11.4018 2.92852 11.2027 2.92852 10.9697V9.0977C2.92852 8.86472 3.1156 8.66558 3.34897 8.66558C3.58233 8.66558 3.76943 8.86472 3.76943 9.0977V10.9697Z" fill="#B2B0B0" stroke="#B2B0B0" stroke-width="0.2"/>
<mask id="path-5-outside-1_582_776" maskUnits="userSpaceOnUse" x="0" y="14.6626" width="26" height="8" fill="black">
<rect fill="white" y="14.6626" width="26" height="8"/>
<path d="M8.40591 22.3473C8.52244 22.3473 8.63315 22.2809 8.69141 22.1722C8.77299 22.0092 8.71471 21.8099 8.5574 21.7254L1.64125 17.9331V16.3268H24.3591V17.9331L17.4429 21.7254C17.2856 21.8099 17.2273 22.0092 17.3089 22.1722C17.3905 22.3353 17.5828 22.3957 17.7401 22.3111L24.831 18.4283C24.9359 18.3739 25 18.2592 25 18.1324V15.9947C25 15.8135 24.8543 15.6626 24.6795 15.6626H1.32079C1.14599 15.6626 1.00032 15.8135 1.00032 15.9947V18.1324C1.00032 18.2531 1.06442 18.3679 1.1693 18.4283L8.25442 22.3111C8.30103 22.3353 8.35347 22.3473 8.40591 22.3473Z"/>
</mask>
<path d="M8.40591 22.3473C8.52244 22.3473 8.63315 22.2809 8.69141 22.1722C8.77299 22.0092 8.71471 21.8099 8.5574 21.7254L1.64125 17.9331V16.3268H24.3591V17.9331L17.4429 21.7254C17.2856 21.8099 17.2273 22.0092 17.3089 22.1722C17.3905 22.3353 17.5828 22.3957 17.7401 22.3111L24.831 18.4283C24.9359 18.3739 25 18.2592 25 18.1324V15.9947C25 15.8135 24.8543 15.6626 24.6795 15.6626H1.32079C1.14599 15.6626 1.00032 15.8135 1.00032 15.9947V18.1324C1.00032 18.2531 1.06442 18.3679 1.1693 18.4283L8.25442 22.3111C8.30103 22.3353 8.35347 22.3473 8.40591 22.3473Z" fill="#B2B0B0"/>
<path d="M8.69141 22.1722L8.87035 22.2617L8.86769 22.2667L8.69141 22.1722ZM8.5574 21.7254L8.46272 21.9015L8.46124 21.9007L8.5574 21.7254ZM1.64125 17.9331L1.54509 18.1085L1.44125 18.0515V17.9331H1.64125ZM1.64125 16.3268H1.44125V16.1268H1.64125V16.3268ZM24.3591 16.3268V16.1268H24.5591V16.3268H24.3591ZM24.3591 17.9331H24.5591V18.0515L24.4552 18.1085L24.3591 17.9331ZM17.4429 21.7254L17.5391 21.9007L17.5376 21.9015L17.4429 21.7254ZM17.7401 22.3111L17.8361 22.4865L17.8348 22.4873L17.7401 22.3111ZM24.831 18.4283L24.735 18.2528L24.739 18.2507L24.831 18.4283ZM1.1693 18.4283L1.07316 18.6037L1.0695 18.6016L1.1693 18.4283ZM8.25442 22.3111L8.16238 22.4887L8.1583 22.4865L8.25442 22.3111ZM8.40591 22.1473C8.44622 22.1473 8.4905 22.1237 8.51514 22.0777L8.86769 22.2667C8.77579 22.4381 8.59865 22.5473 8.40591 22.5473V22.1473ZM8.51255 22.0827C8.54868 22.0105 8.51902 21.9318 8.46272 21.9015L8.65207 21.5492C8.91041 21.688 8.99729 22.0078 8.87028 22.2617L8.51255 22.0827ZM8.46124 21.9007L1.54509 18.1085L1.73741 17.7577L8.65355 21.55L8.46124 21.9007ZM1.44125 17.9331V16.3268H1.84125V17.9331H1.44125ZM1.64125 16.1268H24.3591V16.5268H1.64125V16.1268ZM24.5591 16.3268V17.9331H24.1591V16.3268H24.5591ZM24.4552 18.1085L17.5391 21.9007L17.3468 21.55L24.2629 17.7577L24.4552 18.1085ZM17.5376 21.9015C17.4813 21.9318 17.4516 22.0105 17.4878 22.0827L17.1301 22.2617C17.003 22.0078 17.0899 21.688 17.3483 21.5492L17.5376 21.9015ZM17.4878 22.0827C17.5193 22.1458 17.5882 22.1657 17.6454 22.1349L17.8348 22.4873C17.5773 22.6256 17.2617 22.5247 17.1301 22.2617L17.4878 22.0827ZM17.644 22.1357L24.735 18.2528L24.9271 18.6037L17.8361 22.4865L17.644 22.1357ZM24.739 18.2507C24.7694 18.2349 24.8 18.1941 24.8 18.1324H25.2C25.2 18.3243 25.1024 18.5129 24.9231 18.6058L24.739 18.2507ZM24.8 18.1324V15.9947H25.2V18.1324H24.8ZM24.8 15.9947C24.8 15.9172 24.7372 15.8626 24.6795 15.8626V15.4626C24.9715 15.4626 25.2 15.7099 25.2 15.9947H24.8ZM24.6795 15.8626H1.32079V15.4626H24.6795V15.8626ZM1.32079 15.8626C1.26312 15.8626 1.20032 15.9172 1.20032 15.9947H0.800323C0.800323 15.7099 1.02886 15.4626 1.32079 15.4626V15.8626ZM1.20032 15.9947V18.1324H0.800323V15.9947H1.20032ZM1.20032 18.1324C1.20032 18.1841 1.22831 18.2315 1.26909 18.2549L1.0695 18.6016C0.900528 18.5043 0.800323 18.3222 0.800323 18.1324H1.20032ZM1.26542 18.2529L8.35054 22.1357L8.1583 22.4865L1.07318 18.6037L1.26542 18.2529ZM8.34644 22.1335C8.36308 22.1422 8.38371 22.1473 8.40591 22.1473V22.5473C8.32323 22.5473 8.23899 22.5284 8.1624 22.4887L8.34644 22.1335Z" fill="#B2B0B0" mask="url(#path-5-outside-1_582_776)"/>
<mask id="path-7-outside-2_582_776" maskUnits="userSpaceOnUse" x="1.9668" y="6.05215" width="22" height="8" fill="black">
<rect fill="white" x="1.9668" y="6.05215" width="22" height="8"/>
<path d="M9.90943 13.0425C10.026 13.0425 10.1367 12.9761 10.1949 12.8674C10.2765 12.7043 10.2182 12.5051 10.0609 12.4205L3.66916 8.89998V7.7164H22.3317V8.89998L15.9399 12.4205C15.7826 12.5051 15.7244 12.7043 15.8059 12.8674C15.8875 13.0304 16.0856 13.0908 16.2371 13.0063L22.7978 9.38911C22.9027 9.33476 22.9668 9.22003 22.9668 9.09926V7.38428C22.9668 7.20312 22.8211 7.05215 22.6463 7.05215H3.34287C3.16808 7.05215 3.02241 7.20312 3.02241 7.38428V9.09926C3.02241 9.22003 3.08651 9.33476 3.19139 9.38911L9.75211 13.0063C9.79872 13.0304 9.85116 13.0425 9.9036 13.0425"/>
</mask>
<path d="M9.90943 13.0425C10.026 13.0425 10.1367 12.9761 10.1949 12.8674C10.2765 12.7043 10.2182 12.5051 10.0609 12.4205L3.66916 8.89998V7.7164H22.3317V8.89998L15.9399 12.4205C15.7826 12.5051 15.7244 12.7043 15.8059 12.8674C15.8875 13.0304 16.0856 13.0908 16.2371 13.0063L22.7978 9.38911C22.9027 9.33476 22.9668 9.22003 22.9668 9.09926V7.38428C22.9668 7.20312 22.8211 7.05215 22.6463 7.05215H3.34287C3.16808 7.05215 3.02241 7.20312 3.02241 7.38428V9.09926C3.02241 9.22003 3.08651 9.33476 3.19139 9.38911L9.75211 13.0063C9.79872 13.0304 9.85116 13.0425 9.9036 13.0425" fill="#B2B0B0"/>
<path d="M10.1949 12.8674L10.3739 12.9569L10.3712 12.9619L10.1949 12.8674ZM10.0609 12.4205L9.96624 12.5967L9.96443 12.5957L10.0609 12.4205ZM3.66916 8.89998L3.57267 9.07516L3.46916 9.01815V8.89998H3.66916ZM3.66916 7.7164H3.46916V7.5164H3.66916V7.7164ZM22.3317 7.7164V7.5164H22.5317V7.7164H22.3317ZM22.3317 8.89998H22.5317V9.01815L22.4282 9.07516L22.3317 8.89998ZM15.9399 12.4205L16.0364 12.5957L16.0346 12.5967L15.9399 12.4205ZM16.2371 13.0063L16.1396 12.8316L16.1405 12.8311L16.2371 13.0063ZM22.7978 9.38911L22.7012 9.21391L22.7058 9.21154L22.7978 9.38911ZM3.19139 9.38911L3.28343 9.21148L3.28795 9.21397L3.19139 9.38911ZM9.75211 13.0063L9.66006 13.1839L9.65555 13.1814L9.75211 13.0063ZM9.90943 12.8425C9.94974 12.8425 9.99401 12.8189 10.0187 12.7729L10.3712 12.9619C10.2793 13.1333 10.1022 13.2425 9.90943 13.2425V12.8425ZM10.0161 12.7779C10.0522 12.7057 10.0225 12.6269 9.96624 12.5967L10.1556 12.2443C10.4139 12.3832 10.5008 12.703 10.3738 12.9569L10.0161 12.7779ZM9.96443 12.5957L3.57267 9.07516L3.76565 8.72479L10.1574 12.2453L9.96443 12.5957ZM3.46916 8.89998V7.7164H3.86916V8.89998H3.46916ZM3.66916 7.5164H22.3317V7.9164H3.66916V7.5164ZM22.5317 7.7164V8.89998H22.1317V7.7164H22.5317ZM22.4282 9.07516L16.0364 12.5957L15.8434 12.2453L22.2352 8.72479L22.4282 9.07516ZM16.0346 12.5967C15.9783 12.6269 15.9487 12.7057 15.9848 12.7779L15.6271 12.9569C15.5001 12.703 15.5869 12.3832 15.8453 12.2443L16.0346 12.5967ZM15.9848 12.7779C16.0167 12.8417 16.0903 12.8592 16.1396 12.8316L16.3346 13.1809C16.0809 13.3225 15.7583 13.2192 15.6271 12.9569L15.9848 12.7779ZM16.1405 12.8311L22.7013 9.21397L22.8944 9.56425L16.3337 13.1814L16.1405 12.8311ZM22.7058 9.21154C22.7379 9.1949 22.7668 9.15286 22.7668 9.09926H23.1668C23.1668 9.2872 23.0675 9.47462 22.8898 9.56668L22.7058 9.21154ZM22.7668 9.09926V7.38428H23.1668V9.09926H22.7668ZM22.7668 7.38428C22.7668 7.30678 22.704 7.25215 22.6463 7.25215V6.85215C22.9383 6.85215 23.1668 7.09946 23.1668 7.38428H22.7668ZM22.6463 7.25215H3.34287V6.85215H22.6463V7.25215ZM3.34287 7.25215C3.28521 7.25215 3.22241 7.30678 3.22241 7.38428H2.82241C2.82241 7.09946 3.05094 6.85215 3.34287 6.85215V7.25215ZM3.22241 7.38428V9.09926H2.82241V7.38428H3.22241ZM3.22241 9.09926C3.22241 9.15286 3.2513 9.1949 3.2834 9.21154L3.09937 9.56668C2.92171 9.47462 2.82241 9.2872 2.82241 9.09926H3.22241ZM3.28795 9.21397L9.84867 12.8311L9.65555 13.1814L3.09482 9.56425L3.28795 9.21397ZM9.84413 12.8287C9.86075 12.8373 9.88139 12.8425 9.9036 12.8425V13.2425C9.82093 13.2425 9.73669 13.2235 9.66009 13.1838L9.84413 12.8287Z" fill="#B2B0B0" mask="url(#path-7-outside-2_582_776)"/>
<mask id="path-9-outside-3_582_776" maskUnits="userSpaceOnUse" x="6.30688" y="0" width="14" height="32" fill="black">
<rect fill="white" x="6.30688" width="14" height="32"/>
<path d="M7.01359 31H18.9872C19.0804 31 19.1737 30.9577 19.2319 30.8853C19.2902 30.8128 19.3193 30.7101 19.3018 30.6135L14.5765 1.27778C14.5532 1.12077 14.4192 1 14.2619 1H11.7448C11.5875 1 11.4534 1.11473 11.4301 1.27778L6.70479 30.6135C6.68731 30.7101 6.71644 30.8068 6.7747 30.8853C6.83297 30.9577 6.92619 31 7.01942 31M18.6143 30.3358H7.39815L12.0186 1.65821H13.9938L18.6143 30.3358Z"/>
</mask>
<path d="M7.01359 31H18.9872C19.0804 31 19.1737 30.9577 19.2319 30.8853C19.2902 30.8128 19.3193 30.7101 19.3018 30.6135L14.5765 1.27778C14.5532 1.12077 14.4192 1 14.2619 1H11.7448C11.5875 1 11.4534 1.11473 11.4301 1.27778L6.70479 30.6135C6.68731 30.7101 6.71644 30.8068 6.7747 30.8853C6.83297 30.9577 6.92619 31 7.01942 31M18.6143 30.3358H7.39815L12.0186 1.65821H13.9938L18.6143 30.3358Z" fill="#B2B0B0"/>
<path d="M19.3018 30.6135L19.105 30.6491L19.1044 30.6453L19.3018 30.6135ZM14.5765 1.27778L14.379 1.30959L14.3787 1.30714L14.5765 1.27778ZM11.4301 1.27778L11.6282 1.30608L11.6276 1.30958L11.4301 1.27778ZM6.70479 30.6135L6.90228 30.6453L6.90159 30.6491L6.70479 30.6135ZM6.7747 30.8853L6.61872 31.0107L6.61411 31.0045L6.7747 30.8853ZM18.6143 30.3358L18.8118 30.3039L18.8491 30.5357H18.6143V30.3358ZM7.39815 30.3358V30.5357H7.16335L7.2007 30.3039L7.39815 30.3358ZM12.0186 1.65821L11.8212 1.6264L11.8483 1.45821H12.0186V1.65821ZM13.9938 1.65821V1.45821H14.1642L14.1913 1.6264L13.9938 1.65821ZM7.01359 30.8H18.9872V31.2H7.01359V30.8ZM18.9872 30.8C19.0234 30.8 19.0579 30.7825 19.0761 30.7599L19.3878 31.0106C19.2894 31.133 19.1375 31.2 18.9872 31.2V30.8ZM19.0761 30.7599C19.0998 30.7305 19.1117 30.686 19.105 30.6491L19.4987 30.5779C19.5269 30.7343 19.4806 30.8951 19.3878 31.0106L19.0761 30.7599ZM19.1044 30.6453L14.379 1.30958L14.7739 1.24597L19.4993 30.5817L19.1044 30.6453ZM14.3787 1.30714C14.3691 1.24304 14.315 1.2 14.2619 1.2V0.8C14.5234 0.8 14.7372 0.998504 14.7743 1.24841L14.3787 1.30714ZM14.2619 1.2H11.7448V0.8H14.2619V1.2ZM11.7448 1.2C11.6885 1.2 11.6376 1.24003 11.6281 1.30608L11.2322 1.24948C11.2693 0.989439 11.4864 0.8 11.7448 0.8V1.2ZM11.6276 1.30958L6.90224 30.6453L6.50733 30.5817L11.2327 1.24597L11.6276 1.30958ZM6.90159 30.6491C6.89559 30.6823 6.90406 30.724 6.9353 30.7661L6.61411 31.0045C6.52881 30.8896 6.47902 30.738 6.50798 30.5779L6.90159 30.6491ZM6.93057 30.7599C6.9487 30.7825 6.98322 30.8 7.01942 30.8V31.2C6.86917 31.2 6.71724 31.133 6.61884 31.0106L6.93057 30.7599ZM18.6143 30.5357H7.39815V30.1357H18.6143V30.5357ZM7.2007 30.3039L11.8212 1.6264L12.2161 1.69003L7.5956 30.3676L7.2007 30.3039ZM12.0186 1.45821H13.9938V1.85821H12.0186V1.45821ZM14.1913 1.6264L18.8118 30.3039L18.4169 30.3676L13.7964 1.69003L14.1913 1.6264Z" fill="#B2B0B0" mask="url(#path-9-outside-3_582_776)"/>
</svg>
